<svg xmlns="http://www.w3.org/2000/svg" width="560" height="365" viewBox="0 0 560 365" role="img" aria-label="Repositories by Primary Language">
  <rect x="0.5" y="0.5" width="559" height="364" rx="12" fill="#0d1117" stroke="#30363d"/>
  <style>
    text { font-family: -apple-system,BlinkMacSystemFont,"Segoe UI",Helvetica,Arial,sans-serif; }
    .title { font-size: 22px; font-weight: 600; fill: #58a6ff; }
    .sub { font-size: 13px; fill: #8b949e; }
    .label { font-size: 15px; fill: #c9d1d9; }
    .count { font-size: 15px; font-weight: 600; fill: #c9d1d9; }
  </style>
  <text x="28" y="38" class="title">Repositories by Primary Language</text>
  <text x="28" y="62" class="sub">1 public, non-fork repository = 1 vote for its GitHub primary language</text>

  <g>
    <text x="28" y="105" class="label">C++</text>
    <rect x="145" y="92" width="325" height="12" rx="6" fill="#21262d"/>
    <rect x="145" y="92" width="325" height="12" rx="6" fill="#f34b7d"/>
    <text x="495" y="105" class="count">15</text>

    <text x="28" y="136" class="label">C</text>
    <rect x="145" y="123" width="325" height="12" rx="6" fill="#21262d"/>
    <rect x="145" y="123" width="87" height="12" rx="6" fill="#555555"/>
    <text x="495" y="136" class="count">4</text>

    <text x="28" y="167" class="label">CMake</text>
    <rect x="145" y="154" width="325" height="12" rx="6" fill="#21262d"/>
    <rect x="145" y="154" width="65" height="12" rx="6" fill="#DA3434"/>
    <text x="495" y="167" class="count">3</text>

    <text x="28" y="198" class="label">HTML</text>
    <rect x="145" y="185" width="325" height="12" rx="6" fill="#21262d"/>
    <rect x="145" y="185" width="43" height="12" rx="6" fill="#e34c26"/>
    <text x="495" y="198" class="count">2</text>

    <text x="28" y="229" class="label">Shell</text>
    <rect x="145" y="216" width="325" height="12" rx="6" fill="#21262d"/>
    <rect x="145" y="216" width="22" height="12" rx="6" fill="#89e051"/>
    <text x="495" y="229" class="count">1</text>

    <text x="28" y="260" class="label">Dockerfile</text>
    <rect x="145" y="247" width="325" height="12" rx="6" fill="#21262d"/>
    <rect x="145" y="247" width="22" height="12" rx="6" fill="#384d54"/>
    <text x="495" y="260" class="count">1</text>

    <text x="28" y="291" class="label">Dart</text>
    <rect x="145" y="278" width="325" height="12" rx="6" fill="#21262d"/>
    <rect x="145" y="278" width="22" height="12" rx="6" fill="#00B4AB"/>
    <text x="495" y="291" class="count">1</text>

    <text x="28" y="322" class="label">JavaScript</text>
    <rect x="145" y="309" width="325" height="12" rx="6" fill="#21262d"/>
    <rect x="145" y="309" width="22" height="12" rx="6" fill="#f1e05a"/>
    <text x="495" y="322" class="count">1</text>
  </g>

  <text x="28" y="348" class="sub">28 repositories with a detected primary language · snapshot 2026-10-08</text>
</svg>